<svg width="72" height="72" viewBox="0 0 72 72" fill="none" xmlns="http://www.w3.org/2000/svg">
  <g id="download-core-small">
    <path d="M36 70.2C54.8882 70.2 70.2 54.8882 70.2 36C70.2 17.1118 54.8882 1.8 36 1.8C17.1118 1.8 1.8 17.1118 1.8 36C1.8 54.8882 17.1118 70.2 36 70.2Z" fill="url(#paint0_radial)"/>
    <path opacity="0.4" d="M64.77 36.2C65.52 51.59 53.79 63.58 38.57 62.98C23.34 62.37 10.39 49.4 9.63 34C8.88 18.61 20.61 6.62 35.83 7.22C51.06 7.83 64.01 20.8 64.77 36.2Z" fill="url(#paint1_radial)"/>
    <path d="M62.37 38C63.12 53.39 51.39 65.38 36.17 64.78C20.94 64.17 7.99 51.2 7.23 35.8C6.48 20.41 18.21 8.42 33.43 9.02C48.66 9.63 61.61 22.6 62.37 38Z" fill="url(#paint2_radial)"/>
    <path opacity="0.5" d="M64.77 36.2C65.52 51.59 53.79 63.58 38.57 62.98C23.34 62.37 10.39 49.4 9.63 34C8.88 18.61 20.61 6.62 35.83 7.22C51.06 7.83 64.01 20.8 64.77 36.2Z" fill="url(#paint3_radial)"/>
    <path opacity="0.6" d="M36.9 60.6C48.66 60.6 58.2 51.06 58.2 39.3C58.2 27.54 48.66 18 36.9 18C25.14 18 15.6 27.54 15.6 39.3C15.6 51.06 25.14 60.6 36.9 60.6Z" fill="url(#paint4_radial)"/>
    <path fill-rule="evenodd" clip-rule="evenodd" d="M39.08 42.27L46.34 35.76L48.89 38.51L38.91 47.48L37.85 48.43L36.61 47.48L24.99 38.51L27.04 35.76L35.48 42.27L33.6 21.6H37.2L39.08 42.27Z" fill="url(#paint5_radial)"/>
    <path opacity="0.4" fill-rule="evenodd" clip-rule="evenodd" d="M61.66 34.96C61.78 35.39 62.39 35.32 62.37 34.88C61.7 21.14 50.15 9.56 36.58 9.02C34.46 8.94 32.42 9.13 30.48 9.56C30.07 9.65 30.16 10.21 30.57 10.22C45.01 10.8 57.62 21.3 61.66 34.96Z" fill="url(#paint6_radial)"/>
  </g>
  <defs>
    <radialGradient id="paint0_radial" cx="36" cy="36.18" r="34.38" gradientUnits="userSpaceOnUse">
      <stop offset="0.78" stop-color="#982DBE"/>
      <stop offset="0.91" stop-color="#B038DC" stop-opacity="0.2"/>
      <stop offset="1" stop-color="#E4A1FA" stop-opacity="0"/>
    </radialGradient>
    <radialGradient id="paint1_radial" cx="52.99" cy="20.1" r="50" gradientUnits="userSpaceOnUse">
      <stop stop-color="#FFDCCC"/>
      <stop offset="0.33" stop-color="#FFBDC0"/>
      <stop offset="0.67" stop-color="#F89DC6"/>
      <stop offset="1" stop-color="#E4A1FA"/>
    </radialGradient>
    <radialGradient id="paint2_radial" cx="52.8" cy="19.7" r="53.1" gradientUnits="userSpaceOnUse">
      <stop stop-color="#FFA984"/>
      <stop offset="0.33" stop-color="#FF787F"/>
      <stop offset="0.67" stop-color="#F45FA2"/>
      <stop offset="1" stop-color="#C44AF1"/>
    </radialGradient>
    <radialGradient id="paint3_radial" cx="52.99" cy="20.1" r="50" gradientUnits="userSpaceOnUse">
      <stop stop-color="#FFDCCC"/>
      <stop offset="0.33" stop-color="#FFBDC0"/>
      <stop offset="0.67" stop-color="#F89DC6"/>
      <stop offset="1" stop-color="#E4A1FA"/>
    </radialGradient>
    <radialGradient id="paint4_radial" cx="36.9" cy="39.3" r="21.3" gradientUnits="userSpaceOnUse">
      <stop stop-color="white"/>
      <stop offset="1" stop-color="white" stop-opacity="0"/>
    </radialGradient>
    <radialGradient id="paint5_radial" cx="31.2" cy="32.1" r="15.55" gradientUnits="userSpaceOnUse">
      <stop stop-color="#EF7744"/>
      <stop offset="0.24" stop-color="#E50914"/>
      <stop offset="1" stop-color="#792A95"/>
    </radialGradient>
    <radialGradient id="paint6_radial" cx="50.7" cy="21.3" r="30" gradientUnits="userSpaceOnUse">
      <stop stop-color="white"/>
      <stop offset="1" stop-color="white" stop-opacity="0"/>
    </radialGradient>
  </defs>
</svg>
